<svg id="Layer_1" data-name="Layer 1" xmlns="http://www.w3.org/2000/svg" viewBox="0 0 183.6 20.36">
  <g>
    <path d="M8.1,0c2.83,5.33,5.33,10.79,8.22,16,1.93-3.4,3.6-6.93,5.46-10.4.26-.39.26-.39-.25-.39-.71.13-1.67-.32-2.06.45-1.16,2.34-2.25,4.68-3.46,7-.13.26-.32.39-.58.26-.51-.64.71-1.86,1-2.7C17.65,8.54,18,5.39,19.9,4.5h2.56c.58,0,.58.06.33.57-2.06,4-4,8.1-6.11,12.14-.19.26-.45.2-.64,0C13,11.5,10.09,5.72,7.14,0Z" style="fill: #fff"/>
    <path d="M.07,17.15C2.26,13.55,4.76,5.27,7,3.08c2.76,5.53,5.52,11,8.35,16.44.13.26.39.65.13.84C12,15.93,10,9.25,6.75,4.3c-2,3.86-3.59,7.84-5.46,11.76-.32.7-.32.7.45.7.58-.13,1.55.32,1.8-.45,1-1.54,1.22-4.69,2.7-5.46.9.2,2.63-.38,3,.33-.39,1-2.83-.39-3.28.83-1,1.48-1.22,4.75-2.76,5.33-1.09-.06-2.12,0-3.21,0A.27.27,0,0,0,.07,17.15Z" style="fill: #fff"/>
    <path d="M29.75,20.3c-.2-.07-.84.12-.84-.2V.39a.21.21,0,0,1,.19-.2c.2.07.84-.13.84.2V20.1A.21.21,0,0,1,29.75,20.3Z" style="fill: #fff"/>
    <path d="M65.52,16.44c-1.28-.26-3.47-.13-4-1.54-.32-2.38-.07-10.6-.45-14.07a.35.35,0,0,0-.39-.25c-1.47,2.7-2,6.42-3.53,9.31-.58,1.09-.77,2.38-1.67,3-1.54,0-3.08-1.09-4.3-1.35-2.76-.77-16-6.1-13.49.45,2.44,3.66,7.45,7.26,12,7.51,1.93.2,4.18-2.18,5.91-4.81.45-.39,1.09-.13,1.6-.07,1.61.84,3.09.65,3.67,1.87.25,1.86.77,3.53,1.67,2.69,0-.64-.71-.38-.84-2.05.19-1.54,3,.64,4-.07a.37.37,0,0,0,0-.52A.4.4,0,0,0,65.52,16.44ZM54.73,14.71c-2.7,4-4.37,4.75-8,3.34-2.18-.39-12.78-8-6.74-8.48,4.82.26,9.31,2,14.38,3.92a.88.88,0,0,1,.39,1.17Zm5.72,0c-1.1.38-2.51-.77-4.11-1.22,1.73-3,2.76-6.75,4.11-9.57C60.38,7.71,61.09,12.59,60.45,14.71Z" style="fill: #fff"/>
    <path d="M114,16c-.13,0-.19,0-.26.07-2,1.92-7,4.49-8.15.38-.2-.45,0-.83-.45-1-1,.38-1.54,3.34-2.64,3.4l-.12-.13a1.56,1.56,0,0,1,.12-1.41c.52-1.41,2-1.8,3-2.5-.06-1.29-2.63.45-2.89,1.09-1.73,1.22-3.85,3.4-6.29,2.44-.9-.39-1.22-1.22-1.8-1.93-1.09-.9-2.12-.13-3.47,1.09-.06.07-.06.07-.13,0-.19-.25.45-1.54.2-1.79a.42.42,0,0,0-.71.32c-.06,0-.06,0-.13.06l-.13.13c-1.8,1.86-5.59,3.85-7.26.83-1-1.79-2.44-.64-4,.52-.19.06.32-1.48.26-1.54.12-.45-.65-.65-.71-.2C75.54,17.79,71.62,20,68,18.5c-.71-.26-1-.65-1-1.16,0-.13.06-.19.19-.13,1.67.45,5.27-1.92,2.5-2.89-2.31-.06-5.13,3.73-2,4.88,3.47,1.48,7.65-.32,10.47-2.24l-.51,2.11c-.13.39.45.65.64.33,1.41-1.67,2.51-2.51,3.28-2.51.32-.06.51.39.7.58A4.86,4.86,0,0,0,84,19.14c2.18.83,4.49-.45,6.1-1.8-1.54,5.33,2.18-1,3.53-.45.32-.06.58.39.71.58,1.47,2.89,5.2,2.12,7.25.32-.45,1.41.71,2.76,2,1.41.51-.32.83-1.28,1.41-1.47,2.25,3.14,6.49,1.41,8.86-.71C114.33,16.76,114.65,16.12,114,16ZM68.6,15.3c2.7-1.16.84,1.15-.9,1.15-.57-.07.65-1,.9-1.16Z" style="fill: #fff"/>
    <path d="M137.32,7.64c.32-1.47-1.15-4.3-1.28-2.37,2.18,5.33-3.92,14.64-10,13.8-1.28-.64-.06-2.76.13-3.91.9-2.89,2.51-5.65,2.51-8.67C127.11,2,118.31,8.16,120.11,12c0,.51,2,3.59,2.44,2.12-1.35-1.22-2.44-2.83-1.54-4.63.45-1.93,6.17-5.52,6.94-2.7-.26,4-3.15,7.71-3.21,11.76a1.36,1.36,0,0,0,1.15,1.28C132.12,20.55,136.87,13.23,137.32,7.64Z" style="fill: #fff"/>
    <path d="M183.5,16.06a.41.41,0,0,0-.59.05.18.18,0,0,0,0,.07c-1.48,1.42-3.73,3-5.84,2.19-.9-.39-1.23-1.22-1.8-1.93-1.09-.9-2.12-.13-3.47,1.09-.07.07-.07.07-.13,0s.39-1.54.26-1.67V15.8c0-.06,0-.06-.07-.13-.58-.71-1.54,1.09-2.31,1.41-2.5,1.93-7.83,3.54-6.16-1.6a.38.38,0,0,0-.5-.19.44.44,0,0,0-.15.12c-.77,1-2.12,3-3.21,2.89-.19-.7.39-1.73.77-2.44a.36.36,0,0,0-.13-.51.37.37,0,0,0-.51.13h0a1.29,1.29,0,0,1-.19.32c-1,1.54-10,4.82-8.1.71.33-.52.45-1.35-.32-1.35s-1.41.77-2.24.64a.25.25,0,0,1-.21-.29v0c.71-1.54.77-2.83-.64-2.19a2,2,0,0,0-.45,2.7.07.07,0,0,0,.07.07h0a.25.25,0,0,0-.2.06c-2,1.93-7,4.5-8.15.39-.2-.45,0-.84-.45-1-1,.39-1.54,3.34-2.64,3.41l-.12-.13a1.56,1.56,0,0,1,.12-1.41,4,4,0,0,1,2.77-2.25.37.37,0,0,0-.14-.73l-.06,0c-2,.39-4.75,3.15-3.08,5.14,1.35.77,2-1.35,3-1.86a4.37,4.37,0,0,0,5.67,1.3c1.28-.65,3-1.42,3.66-2.57h0a3.12,3.12,0,0,0,2.63-.26c-1.92,5,6,2.95,8.23,1.09-.78,2.19,1.34,2.57,2.95.58.13-.06.19-.13.32-.06,1.48,4,6.68,1.28,8.86-.84L170.4,19a.38.38,0,0,0,.29.44.36.36,0,0,0,.35-.12c1.42-1.67,2.51-2.5,3.28-2.5.32-.07.58.38.7.58,1.87,3.4,6.23,1.6,8.29-.58C183.5,16.63,183.76,16.31,183.5,16.06Zm-35.77-1a1.29,1.29,0,0,1,.38-1.16,2.89,2.89,0,0,1-.38,1.1Z" style="fill: #fff"/>
  </g>
</svg>
