<?xml version="1.0" encoding="utf-8"?>
<!-- Generator: Adobe Illustrator 24.1.3, SVG Export Plug-In . SVG Version: 6.00 Build 0)  -->
<svg version="1.1" id="Layer_1" xmlns="http://www.w3.org/2000/svg" xmlns:xlink="http://www.w3.org/1999/xlink" x="0px" y="0px"
	 viewBox="0 0 120.5 29.1" style="enable-background:new 0 0 120.5 29.1;" xml:space="preserve">
<g transform="translate(0,-952.36218)">
	<path d="M57.9,954.9c-0.2,4.4-0.8,7-3.7,11.1c-0.1-0.7-0.7-1.3-1.4-1.3h-6.5c-0.8,0-1.5,0.7-1.5,1.5v13.1c0,0.8,0.7,1.5,1.5,1.5
		h6.5c0.6,0,1.2-0.4,1.4-1c0.5,0.4,1,0.8,1.4,1.1c0.6,0.3,1.1,0.5,2,0.6c1.8,0.2,4.9,0.1,11.9,0.1c0.1,0,0.2,0,0.2-0.1
		c1.5-1.2,2-2.2,2.2-3.5c0.2,0,0.3,0,0.4-0.1c1.1-1.4,1.4-3,1-4.2h0.2c0.1,0,0.2-0.1,0.3-0.1c1.1-1.4,1.4-3.1,1-4.3
		c0-0.1-0.1-0.1-0.1-0.2c0.8-0.9,1.2-1.9,1.1-2.8c-0.2-1.3-1.1-2.1-1.8-2.3h-9.8c0.6-3.8,0.3-7.3-1-9.4c-0.6-1.1-1.5-1.7-2.4-1.8
		C59,952.2,58,953.6,57.9,954.9L57.9,954.9z M62.5,954.5c1.1,2,1.6,5.5,0.8,9.4c0,0.2,0.1,0.4,0.4,0.4h10.1c0.7,0.3,1.1,1,1.2,1.7
		c0.1,0.7-0.2,1.6-0.9,2.3h-4.2c-0.2,0-0.4,0.2-0.4,0.4c0,0.2,0.2,0.4,0.4,0.4H74c0,0,0,0.1,0,0.1c0.3,1,0.1,2.3-0.8,3.5h-3.4
		c-0.2,0-0.4,0.2-0.4,0.4s0.2,0.4,0.4,0.4h2.7c0,0,0,0.1,0,0.1c0.3,1,0.1,2.3-0.8,3.5h-2c-0.2,0-0.4,0.2-0.4,0.4
		c0,0.2,0.2,0.4,0.4,0.4h1.4c-0.2,1.1-0.6,1.9-1.9,2.9c-6.9,0-10,0.1-11.7-0.1c-0.8-0.1-1.3-0.2-1.7-0.5c-0.5-0.3-0.9-0.7-1.7-1.3
		v-11.6c3.5-4.6,4.3-7.5,4.5-12.3C59.1,952.2,61.8,952.9,62.5,954.5L62.5,954.5z M46.2,965.4h6.5c0.4,0,0.7,0.3,0.7,0.7v13.1
		c0,0.4-0.3,0.7-0.7,0.7h-6.5c-0.4,0-0.7-0.3-0.7-0.7v-13.1C45.5,965.7,45.8,965.4,46.2,965.4z"/>
</g>
</svg>
